# xmcd CD database file
#
# Track frame offsets:
#	150
#	16982
#	38035
#	54822
#	87085
#
# Disc length: 4440 seconds
#
# Revision: 3
# Processed by: cddbd v1.5PL3 Copyright (c) Steve Scherf et al.
# Submitted via: CDex 1.50beta9
#
DISCID=2b115605
DTITLE=ISSA、石原慎一 - 仮面ライダー555オープニングテーマ　Justiφ's
DYEAR=2003
DGENRE=Soundtrack
TTITLE0=Justiφ's
TTITLE1=Dead or alive
TTITLE2=Justiφ's（オリジナル・カラオケ）
TTITLE3=Dead or alive（オリジナル・カラオケ）
TTITLE4=データ
EXTD=YEAR: 2003
EXTT0=
EXTT1=
EXTT2=
EXTT3=
EXTT4=
PLAYORDER=
